<svg width="70" height="40" viewBox="0 0 70 40" fill="none" xmlns="http://www.w3.org/2000/svg">
<rect width="70" height="40" fill="#4FBFA5"/>
<path d="M19.212 14.488L17.376 25H15.756L17.97 12.4H20.238L23.928 22.984L25.8 12.4H27.42L25.206 25H22.974L19.212 14.488ZM30.6087 12.4H38.0787L37.8267 13.876H32.0487L31.3827 17.71H36.3327L36.0807 19.15H31.1307L30.3567 23.524H36.1167L35.8647 25H28.3947L30.6087 12.4ZM38.8705 12.454L40.6345 12.274L41.6065 23.182L45.9985 13.714H48.1405L49.1485 23.182L53.9545 12.328L55.4665 13.03L49.9225 25H47.7985L46.7725 15.532L42.3625 25H40.2385L38.8705 12.454Z" fill="white"/>
</svg>
