<svg id="Слой_1" data-name="Слой 1" xmlns="http://www.w3.org/2000/svg" viewBox="0 0 400 400"><defs><style>.cls-1{fill:#303297;}.cls-2{fill:#ff4d50;}</style></defs><rect class="cls-1" width="403.48" height="403.48"/><path class="cls-2" d="M220.64,350.72a4.23,4.23,0,0,1-1.34-1.85,5.14,5.14,0,0,1,.32-3.51c.21-.62.41-1,2.42-4.08,1.34-2,1.81-2.74,2.81-3.26a2.66,2.66,0,0,1,2-.38c1,.35,1.43,1.64,1.66,2.42,1.06,3.63-.54,7.05-1.4,8.88-1.24,2.62-2.09,3-2.36,3.06C222.9,352.65,220.82,350.88,220.64,350.72Z"/><path class="cls-2" d="M235.45,344.66c-.7-.46-.6-1.73-.45-3.19a50,50,0,0,1,1-7.47c.87-3,1.3-4.45,2.75-5.68.53-.45,2.38-2,4.27-1.34a4.09,4.09,0,0,1,2.17,2.36c1.2,2.93-.63,6.06-3.12,10.34-.81,1.38-2.35,3.83-4.86,4.85C236.28,344.92,235.77,344.87,235.45,344.66Z"/><path class="cls-2" d="M251.53,334.83a5.45,5.45,0,0,1-.83-3.06c0-1.2-.07-3.1,1.28-4.34a5,5,0,0,1,3.7-1,5.92,5.92,0,0,1,4.21,1.54,5.71,5.71,0,0,1,1.34,5.61,5.42,5.42,0,0,1-2.87,3.51c-2.6,1.14-5.14-.64-5.49-.89A5.26,5.26,0,0,1,251.53,334.83Z"/><path class="cls-2" d="M255.55,350.66a6,6,0,0,1-.64-3.06,4.72,4.72,0,0,1,2.69-3.39c2.07-.95,4.14.05,5.36.64a4.92,4.92,0,0,1,2.61,2.11c.87,1.74-.05,3.68-.57,4.78s-1.37,2.9-3.32,3.52a4.7,4.7,0,0,1-3.38-.26C256.87,354.26,256.37,352.88,255.55,350.66Z"/><path class="cls-2" d="M240.81,365.53c-1.64-1.49-2.63-2.4-2.81-3.89a5.6,5.6,0,0,1,1.4-3.9,6.68,6.68,0,0,1,4.41-3,5.18,5.18,0,0,1,4,1c1,.92,1.27,2.11,1.59,4.08.47,2.88.87,5.3-.7,6.89A4.9,4.9,0,0,1,245,368C243.42,367.91,242.41,367,240.81,365.53Z"/><path class="cls-2" d="M219.81,364.26A6,6,0,0,1,217,361c-.24-.68-.94-2.62.06-4,1.26-1.75,4.16-1.27,4.92-1.15a6.72,6.72,0,0,1,4.15,2.3c.3.36,2.13,2.6,1.27,4.47a3.91,3.91,0,0,1-2.42,1.78A6.28,6.28,0,0,1,219.81,364.26Z"/><path class="cls-2" d="M222.3,378.43c-.45-.69-1.39-2.13-1-3.45s1.73-1.73,2.75-2.11a7.48,7.48,0,0,1,6.51.45,6.21,6.21,0,0,1,2.29,2.62c.2.42,1.28,3,.07,4.4-.69.82-1.75.84-3.83.89-1.67,0-3.63.09-5.36-1.21A6.27,6.27,0,0,1,222.3,378.43Z"/><path class="cls-2" d="M238.13,379.7a4.37,4.37,0,0,1,.13-2.3,4.17,4.17,0,0,1,3.38-2.8,3.63,3.63,0,0,1,3.45,1.46,3.48,3.48,0,0,1,.38,2.43,4.59,4.59,0,0,1-1.92,2.94c-1.13.79-3.19,1.47-4.4.51A3.48,3.48,0,0,1,238.13,379.7Z"/><path class="cls-2" d="M231.87,397.06c-.18-.3-.58-1.11,1-5,1.5-3.6,2.4-4.26,2.88-4.54a3.05,3.05,0,0,1,2.49-.51c1.27.48,1.75,2.32,1.72,3.58s-1.11,2.7-3.26,5.29c-1.47,1.79-2.11,2.23-2.87,2.24A2.43,2.43,0,0,1,231.87,397.06Z"/><path class="cls-2" d="M243.74,394.45c-1.46-1.81-.22-4.22,0-4.66s1.26-2.45,3-2.43a3.66,3.66,0,0,1,2.62,1.79,4.35,4.35,0,0,1,1,3.25,4.09,4.09,0,0,1-2.29,3.07A3.81,3.81,0,0,1,243.74,394.45Z"/><path class="cls-2" d="M247.77,382.06a2.63,2.63,0,0,1,.25-2.17,5.19,5.19,0,0,1,1.15-1.85,4.62,4.62,0,0,1,2.74-1.4,3.06,3.06,0,0,1,2.49.51c1,.92.77,2.72.13,3.83a4.78,4.78,0,0,1-3.38,2,3.67,3.67,0,0,1-2.36-.07A1.87,1.87,0,0,1,247.77,382.06Z"/><path class="cls-2" d="M259.89,382.32a7.25,7.25,0,0,1,.39-4,14.19,14.19,0,0,1,1.59-2.43c1.31-1.92,1.25-2,2.36-3.57a25.69,25.69,0,0,0,1.73-2.43,8.52,8.52,0,0,1,1.72-2.93c.27-.25.78-.72,1.09-.58s.2,1.61.06,2.49c-.55,3.62.2,3.2-.32,6.89a26.43,26.43,0,0,1-1.79,6.52c-1.14,2.71-1.91,3.24-2.55,3.44a3.31,3.31,0,0,1-3-.64A4.15,4.15,0,0,1,259.89,382.32Z"/><path class="cls-2" d="M258.3,393.74a3.66,3.66,0,0,1,1.34-2.55,3.87,3.87,0,0,1,2.62-.64,5.28,5.28,0,0,1,3.76,1.6c.27.3,1.7,1.87,1.15,3.38a3.45,3.45,0,0,1-2.43,1.79,6.22,6.22,0,0,1-4.21-.38,3.43,3.43,0,0,1-1.85-1.22A3,3,0,0,1,258.3,393.74Z"/><path class="cls-2" d="M272,397.64a4.58,4.58,0,0,1-.45-2.3c.12-.73.5-.87,2.24-2.62a23,23,0,0,1,3.45-2.93,1.24,1.24,0,0,1,1-.32c.57.19.71,1.16.81,1.87a9.3,9.3,0,0,1-.58,4.64,7.69,7.69,0,0,1-1.53,2.38,3.36,3.36,0,0,1-2.06,1.3,2.88,2.88,0,0,1-2.15-.77A3.34,3.34,0,0,1,272,397.64Z"/><path class="cls-2" d="M282.79,398.36a3.81,3.81,0,0,1-.26-2.59,17.92,17.92,0,0,1,2.3-5.2,54.81,54.81,0,0,0,2.6-6.29c1-2.73,1.24-3.67,2.25-5a9,9,0,0,1,2.89-2.6,1.29,1.29,0,0,1,.9-.21c.71.15,1,1.17,1.15,1.49.48,1.49,0,3-.94,5.32-1.06,2.75-1.58,4.13-2,5.1-.89,1.9-.68,1.14-3.19,5.79a25.49,25.49,0,0,1-2.47,3.62c-.92,1.13-1.52,1.68-2.13,1.57S282.94,398.64,282.79,398.36Z"/><path class="cls-2" d="M298.57,384.45c-.06,0,0,.3.05.29a10.71,10.71,0,0,1,.51-4.25,7.11,7.11,0,0,1,1.49-2.26c.88-1,1.89-2.05,3.19-1.91a2.67,2.67,0,0,1,1.74,1,3.56,3.56,0,0,1,.56,3,14.23,14.23,0,0,1-2.26,3.07,6.11,6.11,0,0,1-1.45,1.48,3,3,0,0,1-2.55.6C299.1,385.21,298.71,384.36,298.57,384.45Z"/><path class="cls-2" d="M275.89,372.23a4.12,4.12,0,0,1-.89-2.72,12.25,12.25,0,0,1,.72-3.66,7.37,7.37,0,0,1,.6-1.74,5,5,0,0,1,2.94-2,5.23,5.23,0,0,1,3.27-.13,3.48,3.48,0,0,1,1.87,1.19,4,4,0,0,1,.34,3.24,7.81,7.81,0,0,1-2.85,4.51,16.44,16.44,0,0,1-3,1.53,2.82,2.82,0,0,1-2.08.38A2.06,2.06,0,0,1,275.89,372.23Z"/><path class="cls-2" d="M271.77,351.43a5.46,5.46,0,0,1-.09-3.28,6.58,6.58,0,0,1,2.38-3.06,34.92,34.92,0,0,1,2.85-2c1.63-1.1,1.92-1.24,2.18-1.74s.28-.95,0-3.19a38.78,38.78,0,0,0-.72-4.13c-.48-1.89-.66-1.78-1.19-3.79-.86-3.2-.59-4.14-.39-4.64a3,3,0,0,1,1.62-1.74,3.22,3.22,0,0,1,2.81.64c1.43,1.09,1.6,3,1.79,5.53a26.38,26.38,0,0,1-.34,6.51c-.44,2.42-.72,2.22-2,6.85-.85,3.14-.9,3.91-1.7,5.62-1.47,3.12-2.85,3.83-3.49,4.08a3.11,3.11,0,0,1-2.77,0A2.75,2.75,0,0,1,271.77,351.43Z"/><path class="cls-2" d="M283.34,349.68a3.79,3.79,0,0,1,.47-2.89c.63-1.25,1-1,1.7-2.3s.66-2.15,1.23-2.3,1.11.46,1.24.6c1.53,1.59.46,4.67.38,4.89a4.73,4.73,0,0,1-2,2.64c-.27.16-1.5.88-2.38.34A1.69,1.69,0,0,1,283.34,349.68Z"/><path class="cls-2" d="M294.15,324.74a2.33,2.33,0,0,1,.34-2.55,2.21,2.21,0,0,1,2-.68c1.19.35,1.36,1.84,1.36,1.92a2.23,2.23,0,0,1-.85,2,2.08,2.08,0,0,1-2.34,0A1.84,1.84,0,0,1,294.15,324.74Z"/><path class="cls-2" d="M292.74,367.72a5.16,5.16,0,0,1-.17-3.23A7.9,7.9,0,0,1,294.7,361c1.95-2.17,2.79-1.87,3.49-3.32s.47-2.72.26-4.34a21.92,21.92,0,0,0-1.19-4.17,18.27,18.27,0,0,1-.52-6.89c.13-2.12.74-4.28,2-8.6a21.17,21.17,0,0,1,3-7.06c.5-.72,2-2.88,3-2.56.66.23.79,1.55.85,2.22a8.08,8.08,0,0,1-.68,3.91c-.93,2.37-1.63,2.8-2.64,4.85a21.84,21.84,0,0,0-1.62,4.94c-.35,1.88-.26,3.19.17,7.4.67,6.5.81,6.79.94,9.19.28,5.2-.2,7-.77,8.26a8.22,8.22,0,0,1-3.31,4c-.68.4-2.14,1.26-3.41.68A3.2,3.2,0,0,1,292.74,367.72Z"/><path class="cls-2" d="M311.55,355.47c-1.59-2.72-1.39-5.47-1.19-8.43.86-12.53.62-11.08.94-13.61a66.18,66.18,0,0,1,2.38-11.58c1.52-5,2.3-5.29,2.64-5.28,1.08.06,1.69,3.61,1.79,4.17.37,2.21.32,4.56-.77,9.2-1.35,5.76-2.1,5.7-2.3,8.85a26.79,26.79,0,0,0,.68,7.4c.81,3.64,1.77,4.63,1.54,7.24-.17,1.77-.91,4.6-2.39,4.85S311.79,355.87,311.55,355.47Z"/><path class="cls-2" d="M283,306a3.74,3.74,0,0,1,.43-4.51c.26-.28.84-.87,1.44-.77,1,.19,1.6,2.35,1.37,4-.07.48-.3,2.14-1.28,2.39C284.22,307.32,283.4,306.53,283,306Z"/><path class="cls-2" d="M291.38,289c-1.31-.21-2-2.27-2.81-5a16.29,16.29,0,0,1-1.1-5.79c0-1.57.15-4.31,1.79-5a3.24,3.24,0,0,1,2.8.51c1.75,1.25,1.57,3.75,1.54,4.17-.14,1.83-1,1.77-1.2,3.58-.1,1.24.32,1.41.69,4.68.13,1.17.16,2-.35,2.46A1.64,1.64,0,0,1,291.38,289Z"/><path class="cls-2" d="M310.74,313.85c-.82-.18-1.14-1.21-1.87-3.28-.64-1.83-1.34-3.65-2-5.48-.87-2.44-1-2.59-1.32-3.75a22.42,22.42,0,0,1-.76-4c-.15-1.63-.4-4.33.51-4.68s2.09,1.31,2.3,1.57c1.09,1.4,1,2.4,1.78,4.9a27,27,0,0,0,1.88,4.34c1.17,2.21,1.75,2.57,2.29,4.34a5.74,5.74,0,0,1,.22,3.49,3.79,3.79,0,0,1-1.49,2.08A2.19,2.19,0,0,1,310.74,313.85Z"/><path class="cls-2" d="M320.45,311.13a12.69,12.69,0,0,1-.43-4.77,16.11,16.11,0,0,1,1.28-4.42,18.42,18.42,0,0,1,2.34-4.34c.72-1,1.28-1.54,2-1.62a2.08,2.08,0,0,1,1.53.47c1.29,1.15.43,4,.13,5a18.73,18.73,0,0,1-1.28,3,8.84,8.84,0,0,0-1.15,2.69c-.13,1,.16,1.19,0,2.38a3.5,3.5,0,0,1-.8,2.21c-1,.95-2.72.49-2.94.43Z"/><path class="cls-2" d="M315.36,287.53a4.69,4.69,0,0,1-2.3-2.23c-.84-1.88,0-3.88,1-5.94,1.23-2.73,1.94-2.66,2.81-4.59,1-2.13.28-2.59.57-8.75.24-4.94.76-6.28-.25-8.42-.47-1-1.48-2.61-1.72-3-.88-1.4-1.3-1.9-2.3-3.51-1.61-2.59-1.66-3.11-1.66-3.45a3.75,3.75,0,0,1,2-3.32c1.88-.87,3.87.53,4.21.77,2.09,1.45,2.58,4,3.07,6.82,1.36,8,1.78,13.15,1.78,13.15.49,5.86-.09-.29.45,13.15.08,1.86.19,4.5-1.4,6.83a6,6,0,0,1-3.58,2.68A4.39,4.39,0,0,1,315.36,287.53Z"/><path class="cls-2" d="M350.72,264c-1.18,0-2-.93-3-2.1a11.47,11.47,0,0,1-2.68-5.11c-.55-2.66.45-3.53,1.79-9.26,1-4.26,1.79-9.06,1.79-9.06.37-2.26.6-4,1.91-5.94.61-.88,2.07-3,3.77-2.74,1.35.21,2.31,1.85,2.49,3.19.12.9-.1,1.72-1.41,4.15-1.57,2.93-1.93,3-2.81,4.72a14.83,14.83,0,0,0-1.91,6.77,13.66,13.66,0,0,0,.89,4.85c.7,1.79,1.31,2.12,1.92,4.09.45,1.47.82,2.66.32,3.95A3.71,3.71,0,0,1,350.72,264Z"/><path class="cls-2" d="M364,234.11a5.15,5.15,0,0,1-1.4-2.88c-.35-2.15.69-3.94,1.66-5.55,1.15-1.93,1.43-1.53,2.68-3.45,1-1.6,1.06-2.23,3-6.32,1.21-2.55,1.57-3.09,2-3.06.9.07,1.34,3,1.41,3.45.24,1.63.19,3.18-.83,8a66.11,66.11,0,0,1-2,7.34c-.85,2.49-1.28,3.32-2.17,3.7C366.85,236,365,235.12,364,234.11Z"/><path class="cls-2" d="M382.13,215.85a11.5,11.5,0,0,1-1.53-5.36,11.89,11.89,0,0,1,1-5.11,10.1,10.1,0,0,1,3.44-4.47c1-.72,2.55-1.76,4.15-1.27a4.1,4.1,0,0,1,2.36,2.42c.75,1.83.08,3.61-.51,5.17-.18.48-.19.42-2.87,4.73a10,10,0,0,1-2.74,3.38,7.4,7.4,0,0,1-2.17,1Z"/><path class="cls-2" d="M398.79,206a2.49,2.49,0,0,1-1.53-3.45,2.08,2.08,0,0,1,2.1-1,2.56,2.56,0,0,1,1.41,3.64A2,2,0,0,1,398.79,206Z"/><path class="cls-2" d="M386.91,250.83a7.72,7.72,0,0,1-.76-3.38,20.55,20.55,0,0,1,.45-6.64,27.8,27.8,0,0,1,2.1-5.43,15.72,15.72,0,0,1,1.92-3.25c1.31-1.7,2.14-2,2.61-2.11a2.89,2.89,0,0,1,1.86.13c1.18.56,1.52,2,1.85,3.32a7.84,7.84,0,0,1,.12,3.51,17.61,17.61,0,0,1-1.21,3c-.5,1.19-.85,2-1.21,3.13-.28.82-.26.89-.9,3.25s-.89,3.19-1.14,3.9c-.67,1.88-1,2.82-1.6,3.06C389.75,253.82,387.83,252.38,386.91,250.83Z"/><path class="cls-2" d="M392,267.68a24.93,24.93,0,0,1,1.28-5,20.19,20.19,0,0,1,2-4.15c.34-.54.76-1.14,1.4-1.21a2,2,0,0,1,1.53.77c.76.78.84,1.59,1.34,3.7s.57,1.8.71,2.68a8.19,8.19,0,0,1-.26,4.6,7,7,0,0,1-2,2.68A4.7,4.7,0,0,1,395,273a3,3,0,0,1-2-.64,3.89,3.89,0,0,1-1-2.8A7.69,7.69,0,0,1,392,267.68Z"/><path class="cls-2" d="M362.53,286.57c-.24-2.69-.37-4,.13-6.06.57-2.33,1.14-2.19,3-6.25a35.57,35.57,0,0,0,2.3-6.2,31.14,31.14,0,0,0,.89-5.17c.32-3.64-.3-3.9.06-6.63a14.46,14.46,0,0,1,2.56-6.71c.86-1.17,2.13-2.84,4.08-3a3.26,3.26,0,0,1,2.36.64c.93.81.93,2.08.9,4.28a13.87,13.87,0,0,1-.9,5.49c-.7,1.72-1.27,1.93-2.55,3.89-1,1.6-1.78,3.53-3.25,7.41s-2.18,5.69-2.3,6.83c-.31,2.78.39,3.51-.13,7.08a18.17,18.17,0,0,1-1.21,4.34c-.77,1.83-1.46,3.46-2.75,3.64a3.08,3.08,0,0,1-2.36-1.15A4.12,4.12,0,0,1,362.53,286.57Z"/><path class="cls-2" d="M347.28,291.87c-.67-1.47-.15-2.94.89-5.74,1-2.6,1.63-4.33,2.87-4.47a2.18,2.18,0,0,1,1.53.57c1.54,1.18,1.58,3.42,1.6,5a10.85,10.85,0,0,1-1.47,5.81c-.48.8-1.25,2.08-2.23,2-.6,0-1.07-.54-1.85-1.41A7.36,7.36,0,0,1,347.28,291.87Z"/><path class="cls-2" d="M332.91,303.55a4.15,4.15,0,0,1-2-1.78c-.85-1.77.35-3.9,1.19-5.37,1.45-2.56,2.32-2.31,3.32-4.25,1.2-2.34,1-4.69.76-6.81s-.81-3.75-2-7.15c-1.87-5.19-2.35-5.36-3.15-8.34a32.43,32.43,0,0,1-1.1-7.32c-.05-1.59.08-1.52.59-7.57.46-5.41.43-6.46.26-7.75s-.26-.86-1.19-5.1c-.8-3.62-1-5-.77-6.56s.34-2.82,1.45-3.74c1.58-1.33,3.88-.72,4.34-.6a5.72,5.72,0,0,1,3.49,2.64c.41.77.58,1.61.42,4.09a41.87,41.87,0,0,1-.85,6.21c-1.18,5.39-1.31,5-1.7,7.23a31.8,31.8,0,0,0-.51,9.28,34.92,34.92,0,0,0,1.53,6.81c1.05,3.58,1.55,4,3,8.51a30.42,30.42,0,0,1,1.7,6.72c.15,1.78-.05,2.23-.59,6.9-.74,6.29-.72,8.55-2.3,11.49-.91,1.68-1.82,2.6-3,2.89A4.46,4.46,0,0,1,332.91,303.55Z"/><path class="cls-2" d="M329.43,339.81c-1.29,0-2.66-2.19-3.15-4.26-.63-2.62.66-3,.51-6.46-.12-2.73-.94-2.83-1-6,0-1,.07-.3.34-4.34.16-2.42.19-3.63,1.1-4.34a1.56,1.56,0,0,1,1.19-.42c1.5.31,2,4.4,2,6.72,0,2.66-.53,3.15-.17,5.45.16,1,.26.85.94,3.53.41,1.63.61,2.67,1,4.76.58,3,.6,3.66.17,4.13a5.59,5.59,0,0,1-2.17,1.11A3,3,0,0,1,329.43,339.81Z"/><path class="cls-2" d="M341.94,340.7a17.1,17.1,0,0,1-1.62-3.23c-.87-2.31-1.08-4.41-1-8.51a90.92,90.92,0,0,1,.93-11.83c.7-4.9,1.31-6.78,2.86-8.26.52-.5,2-1.92,3.7-1.57a3.39,3.39,0,0,1,2.08,1.57c.3.51.92,1.84-.42,5.66-1.05,3-1.74,3.08-3.15,6.43-1,2.46-1.61,3.85-1.62,5.83a18.83,18.83,0,0,0,.77,4.72c.55,2.13,1,2.65,1,4.17a5.19,5.19,0,0,1-1,3.53A4.58,4.58,0,0,1,341.94,340.7Z"/><path class="cls-2" d="M380.19,302.53c-1.58-.64-2.05-2.79-2.34-4.25-.54-2.72-.18-4.83.38-8.13.64-3.74,1-3,1.45-5.87a13,13,0,0,1,1.45-3.71c.13-.25.38-.69.68-.68s.72.92.85,1.32a10.45,10.45,0,0,1,.34,3.07,14.16,14.16,0,0,0,.3,2.72c.42,1.85,1,1.83,1.19,3.19a10.18,10.18,0,0,1-.6,3.66c-.51,2-.74,2-.76,3,0,1.39.45,1.59.34,2.94-.05.65-.17,2.07-1.19,2.68A2.57,2.57,0,0,1,380.19,302.53Z"/><path class="cls-2" d="M388.45,349.19a5.52,5.52,0,0,1-3.77-2.87c-1.27-2.11-1.08-4.32-.77-7.47.38-3.72,1.06-3.79,1.22-6.89a27.5,27.5,0,0,0-.64-6.83c-.47-2.49-.75-2.56-1.47-6.13a29.09,29.09,0,0,1-.7-5.3,15,15,0,0,1,.38-4.15c.4-1.58.7-2.83,1.79-3.38a3.42,3.42,0,0,1,2.81.13c.23.1,2,.88,2.23,2.42.07.45,0,.87-.83,2.62s-1.2,2.31-1.47,2.87c-.73,1.57-.49,3.05,0,6a24.57,24.57,0,0,0,2,6.83c1.58,3.38,2.53,3.21,3.58,6.19a17.88,17.88,0,0,1,.95,5.75c0,.38-.23,2-.7,5.23-.36,2.54-.48,3.19-1.08,3.83A4.47,4.47,0,0,1,388.45,349.19Z"/><path class="cls-2" d="M401.53,358.51c-2.2.54-2.53.06-4.91.45-1.93.31-2.92.47-4,1.27a5.68,5.68,0,0,0-2,3.26,5.21,5.21,0,0,0,.32,3.19,3.71,3.71,0,0,0,1.15,1.6,4.67,4.67,0,0,0,3.7.44,7.8,7.8,0,0,0,2.93-1.15,9.35,9.35,0,0,0,2-1.85A11.58,11.58,0,0,0,402,364c1.19-2,2-5.05,1-5.68C402.76,358.11,402.45,358.28,401.53,358.51Z"/><path class="cls-2" d="M374.72,364.83c-1.06-.69-.66-1.93-1.53-4.09-.63-1.56-1-1.27-1.66-2.93a12.46,12.46,0,0,1-.83-4c-.15-1.82-.21-2.74.39-3.57a2.61,2.61,0,0,1,1.91-1.15c1.33,0,2.2,1.38,2.49,1.85a5.06,5.06,0,0,1,.7,2.3c.07,1.26-.38,1.64-.57,3.51a9.46,9.46,0,0,0-.07,1.85c.14,2,.92,2.57,1,4.66.07,1.32-.21,1.61-.38,1.72A1.5,1.5,0,0,1,374.72,364.83Z"/><path class="cls-2" d="M365.21,355.57c-1,.43-2.26-.47-2.74-.83a7.62,7.62,0,0,1-2.62-4.14,20.1,20.1,0,0,1-.51-8.24,27.67,27.67,0,0,1,1.47-7.27,20.27,20.27,0,0,1,3.06-6.07c1.7-2.22,2.72-2.43,3.77-4.59a13.05,13.05,0,0,0,1.15-4.34,31.15,31.15,0,0,0,0-6.2c-.15-1.71-.33-2.5.12-3.57a4.76,4.76,0,0,1,2-2.23c.31-.18,2.06-1.15,3.38-.45,1.49.79,1.52,3.23,1.53,4.79,0,1.95-.45,3.48-1.4,6.44A31.39,31.39,0,0,1,371.6,326a27.7,27.7,0,0,0-1.79,3.06c-.73,1.55-.7,2-1.53,4.28a27.06,27.06,0,0,1-1.85,4.27c-.84,1.47-1.39,2-2.43,4a6.16,6.16,0,0,0-.89,2.29c-.05.47-.05,1.2.89,3.58.55,1.37.68,1.47,1.4,3.19,1,2.37,1.13,3.12.83,3.83A2,2,0,0,1,365.21,355.57Z"/><path class="cls-2" d="M313,385.19a4,4,0,0,1-2.36-2.81c-.66-2.46,1.1-4.72,1.4-5.1,1.12-1.44,1.85-1.21,2.87-2.75a8.13,8.13,0,0,0,1.22-3.32c.31-1.92-.27-2.11-.13-4.78a9.08,9.08,0,0,1,1.09-4.09c.63-1.14,1.07-1.26,1.27-1.28,1-.1,1.83,1.5,1.92,1.66.67,1.29.48,2.39-.13,6.45-.44,2.91-.66,4.38-.7,5a31.7,31.7,0,0,1-.32,3.9,14.51,14.51,0,0,1-1.09,3.57c-.64,1.41-1.05,2.3-2,2.94A3.71,3.71,0,0,1,313,385.19Z"/><path class="cls-2" d="M314.09,400.38a6.77,6.77,0,0,1-2.62-2.23c-.85-1.37-1.44-3.75-.26-5.17,1-1.23,2.86-1.12,4.41-1,2.39.14,4,1.15,6.06,2.42,1.68,1.05,2,1.57,2.11,2,.51,1.65-1,3.35-1.28,3.64a5.93,5.93,0,0,1-4,1.85A7.47,7.47,0,0,1,314.09,400.38Z"/><path class="cls-2" d="M364.7,399.11a5.4,5.4,0,0,1-1.91-2.49c-.45-1.27-.56-3.36.51-4.09.48-.33.77-.07,3.13.19s3,.11,4.14.71a3.12,3.12,0,0,1,1.66,4.21,4,4,0,0,1-2.23,2,5.17,5.17,0,0,1-3.57.32A5.06,5.06,0,0,1,364.7,399.11Z"/><path class="cls-2" d="M380.15,398c-1-1.33-.69-3.38-.13-4.66a6,6,0,0,1,2-2.43,4.62,4.62,0,0,1,3-1,4.49,4.49,0,0,1,3.2,2,4.83,4.83,0,0,1,.76,2.62,5.42,5.42,0,0,1-1.28,3.51c-.93,1.12-2.74,2.38-4.46,2a6.31,6.31,0,0,1-2.24-1.21A5.1,5.1,0,0,1,380.15,398Z"/><path class="cls-2" d="M380.4,383.79c-1.18-.9-1.53-2.15-2.23-4.66s-.37-3.11-.19-3.32a2.58,2.58,0,0,1,2.11-.58,6.3,6.3,0,0,1,4,2,5.92,5.92,0,0,1,2.1,3.38,3.51,3.51,0,0,1-.44,2.68,3.45,3.45,0,0,1-2.43,1.34A4.17,4.17,0,0,1,380.4,383.79Z"/><path class="cls-2" d="M390.81,380.28a4.23,4.23,0,0,1-.26-3.45,4.09,4.09,0,0,1,2.49-2.17,4.17,4.17,0,0,1,3.7.32c1.22.89,1.35,2.37,1.47,3.83.11,1.24.21,2.39-.57,3.32a3.57,3.57,0,0,1-2.75,1.08A4.88,4.88,0,0,1,390.81,380.28Z"/><path class="cls-2" d="M368.85,383.47c-2.87-5-3.27-9.55-2.23-14.94-.22-2-2-8.16,1.72-7.66.53-.35.47,4.21.32,4.66-.07,1.67.84,2.57,1.66,4.21.22,1.25,3.75,12.11,1.08,14.3Z"/><path class="cls-2" d="M351.68,397.7a5.92,5.92,0,0,1-3.51-3.19c-1.13-2.32-.27-3.72.13-9.57a29.49,29.49,0,0,0,0-7c-.51-3.1-1.31-3.35-2.43-7.65a50.65,50.65,0,0,1-1.21-6.9c-.35-2.78-.16-2.53-.57-7.72-.32-4-.64-6.7.31-9.7a3.39,3.39,0,0,1,1.66-2.3,2.85,2.85,0,0,1,2.81.51A4,4,0,0,1,350,347a11,11,0,0,1-.13,3.32,26.13,26.13,0,0,0-.06,5.36c.21,1.87.6,1.66,2,6.06,1.27,3.88,1.34,5.22,1.34,6a18.13,18.13,0,0,1-.64,3.9c-1,5.1-.21,4.92-1.08,11.29a8.59,8.59,0,0,0,.06,4.22c.29.86.52.93,1.85,3.19,1.59,2.69,1.78,3.47,1.86,4.08a3.42,3.42,0,0,1-.58,2.88C353.69,398.22,352,397.78,351.68,397.7Z"/><path class="cls-2" d="M332.47,397.32a8.07,8.07,0,0,1-1.15-4.6c.08-3.23,1.08-3.86,1.34-6.51.15-1.54-.24-3.11-1-6.25-1.17-4.71-1.92-5.23-2.68-9.07a25.48,25.48,0,0,1,.51-13.27c.65-2.14.7-1.35,2.55-6.07a22.57,22.57,0,0,1,2.17-4.46c.88-1.36,1.81-2.76,2.81-2.62s1.45,1.59,1.47,1.66c.43,1.35-.19,2.63-1.09,4.4l-2.68,5.3c-2,3.9-1.61,8-1.34,10.66.16,1.57.33,1.59,3.45,10.47a58.37,58.37,0,0,1,3.06,11.49,12.15,12.15,0,0,1-.38,6.06c-.33.94-1.22,3.45-3.32,4.09a3.48,3.48,0,0,1-2.49-.13A3.14,3.14,0,0,1,332.47,397.32Z"/><path class="cls-2" d="M400,285.94a2.28,2.28,0,0,0-1,.7,11.65,11.65,0,0,0-2.1,4.15,7.45,7.45,0,0,0-.39,2.81c.18,1.72,1,1.83,1.54,3.7a11.21,11.21,0,0,1,0,4.72c-.19,1.22-.31,1.14-.52,2.49a12.21,12.21,0,0,0-.12,4.15c.18,1,.57,3.2,2,3.64a2.21,2.21,0,0,0,2-.45c1.35-1.21-.14-3.5-.26-7.66-.1-3.61,1-3.61,1.22-9.38.05-1.23-.05,0-.32-5.43-.08-1.58-.15-3.19-1-3.51A1.82,1.82,0,0,0,400,285.94Z"/></svg>