<svg xmlns="http://www.w3.org/2000/svg" xmlns:xlink="http://www.w3.org/1999/xlink" viewBox="0 0 400 400"><defs><style>.cls-1{fill:#2b79ff;}.cls-2{fill:#195aff;}</style></defs><g id="Слой_1" data-name="Слой 1"><image width="1181" height="1181" transform="translate(0 1.54) scale(0.34)" xlink:href="Homeworks/images/bg-red-01.jpg"/></g><g id="Слой_2" data-name="Слой 2"><rect class="cls-1" width="400" height="400"/><path class="cls-2" d="M218.28,265.68c27.81-24.28,73.32-42,109.7-48.25,26.68-4.73,17.34-3.23,42.55-3.58,11.24,0,18.74.16,27.93.85,13.64,1.23,17.67,3.64,20.84,3.24a3.07,3.07,0,0,1,2.47.51,1.31,1.31,0,0,1-.09,2.12c-.11,1,.44,2.7-.25,3.41-.51.41-1.53-.51-3.58-1.28-3.34-1.19-5.6-1-9.11-1-4.09-.11-3.28-.7-5.36-.59-.77,0-1.91.16-2.47-.52-1.08-2.67-5.1-1.74-7.48-1.95-43.56-1.15-67.7,1-112.6,16.85-21.62,8.4-38.91,17.77-55.15,27.23-2.57.85-4.46,2.88-7,3.51C218.47,266.07,218.43,265.68,218.28,265.68Z"/><path class="cls-2" d="M229.57,271.1c-.22-.32,2.19-2.34,2.37-2.49a37.66,37.66,0,0,1,6-3.93c2.51-1.47,1.61-1.12,6.36-4.08,1.15-.73,3.58-2.25,6.63-4,5.22-3,9.38-5.16,12.71-6.86,2.32-1.18,4.42-2.25,7.37-3.64,2.35-1.1,7.65-3.54,14.58-6.19,2.06-.78,4.26-1.62,7.25-2.61.74-.25,2.69-.86,6.54-2.08,2.8-.88,4.21-1.33,4.69-1.47,2.12-.62,2.66-.72,7.34-1.94,4.4-1.15,4.46-1.21,6.45-1.69.87-.22,3-.72,6.29-1.41,6.15-1.27,10.95-2,18.25-3.16a98.85,98.85,0,0,1,10.69-1.18l1.47-.06c4.58-.21,7.81-.45,8.68-.51,2.83-.2,8,0,18.32.38,5.69.21,6.83.29,7.85.38,0,0,4,.34,11,1.5,1.75.29,1.93.44,2.3.45a1.12,1.12,0,0,1,.54.13,1.18,1.18,0,0,1,.32.25c.45.51.08,2-.44,2.81a1,1,0,0,1-.58.51,1,1,0,0,1-.51,0,3.21,3.21,0,0,1-.89-.29,13.36,13.36,0,0,0-3.55-.76c-2.16-.33-3.86-.5-4-.51-3.44-.33-5.16-.5-7.11-.61-3-.17-4.92-.15-8.24-.16-12.07,0-13.18-.27-19.24,0-.6,0-3.06.14-6.32.38s-9.24.71-16.44,1.89c-4.8.78-8.87,1.71-17,3.57-3.2.73-5.33,1.25-7.12,1.69-5,1.22-7.53,1.85-10.75,2.84-2.53.78-4.23,1.39-7.18,2.46-1.3.47-6.68,2.43-13.6,5.39-3.43,1.48-5.36,2.39-6.86,3.13-1.27.63-2,1-4.24,2.2-2.81,1.49-7.69,4.07-11.17,5.88-1.4.72-3.72,1.93-6.8,3.48-6.24,3.13-7.38,3.55-12.32,6.06-1.31.67-2.65,1.27-4,1.95-1.06.55-2.12,1-4.24,1.91C230.12,271,229.66,271.22,229.57,271.1Z"/><path class="cls-2" d="M228.46,285.3c3.31-5.87,11.58-9.49,15.95-13.38a221.33,221.33,0,0,1,35.81-19.46c32.12-14.44,84.45-24,120.9-16.73,1.21.33,2.45.62,3.64.83,0,1.07-.31,3-1.25,3.64-3.3-.71.06-.06-6.57-1.21-42-5-84.12,3.2-122.4,21.29C257.69,266.85,244.71,281.42,228.46,285.3Z"/><path class="cls-2" d="M216.94,308.28c-.08-.12-.17-.44.6-1.5a8.89,8.89,0,0,1,1.76-1.85c1.74-1.24,3.2-2.85,4.85-4.22,2-1.64,1.38-1.24,4.88-4.24,1.89-1.62,1.5-1.25,4.66-3.93,2.5-2.11,3.36-2.87,5.08-4.24,1.38-1.11,2.43-1.91,2.64-2.08,2.44-1.85,4.47-3.25,5.65-4.05,3-2,3-1.82,6.93-4.37,3.27-2.13,3.18-2.21,5.27-3.48,1.21-.74,1.77-1,6.22-3.45,6-3.24,5.68-3.09,6.54-3.54,3.45-1.79,3-1.42,7.53-3.73,2.59-1.32,4-2.07,6.42-3.13.89-.39,1.62-.68,3.38-1.37,4.62-1.81,7.25-2.84,11-4.15s6.71-2.25,7.47-2.49c4.22-1.33,7.37-2.16,11-3.13,4.24-1.13,7.5-2,12.06-3,1.09-.23,4.53-1,9.07-1.72,3.51-.59,6.78-1.14,11.13-1.53,1-.1,2.67-.23,5.78-.39,6.61-.32,12.84-.39,18.8-.32,6.26.08,9.38.12,13.56.48a99.89,99.89,0,0,1,12.86,2,11.08,11.08,0,0,0,2.21.54,1.57,1.57,0,0,1,.67.16.64.64,0,0,1,.32.29c.07.2,0,.38-.16.64a7.46,7.46,0,0,0-.23,1c-.23.91-.33.79-.44,1.4a3.07,3.07,0,0,1-.26.8c-.12.26-.21.32-.29.35s-.35-.07-.6-.22-.62-.3-.93-.45a6.48,6.48,0,0,0-1.24-.42c-1.42-.37-1.74-.56-3.55-1a50.48,50.48,0,0,0-5.39-1.08,51.82,51.82,0,0,0-6.61-.35l-8.48-.13c-6.43,0-11,0-17.21.29-2.94.14-4.84.23-7.56.48-6.11.55-10.93,1.39-14.39,2-.95.16-3.54.63-6.9,1.34-1.78.37-6.75,1.42-11.52,2.74-2.57.71-6.39,2.09-13.95,4.82-9.83,3.55-14.2,5.25-16.5,6.16-3.43,1.35-5.14,2-7.27,3A131.4,131.4,0,0,0,269,273.59c-3,1.74-7.64,5-16.91,11.42-3.65,2.54-4.63,3.25-5.49,3.89-5.35,4-8,6-10.85,8.78a36,36,0,0,1-4.82,4.25c-1.36,1-2.71,1.76-3.39,2.17-1.9,1.12-1.67.84-4.37,2.36-1,.58-2.13,1-3.19,1.56a4.86,4.86,0,0,1-2.23.51C217.15,308.52,217,308.38,216.94,308.28Z"/><path class="cls-2" d="M201.94,345.78c-2.74-3.55.79-4.29,3-7.76,1.83-2.41,3.6-5,5.65-7.18C261.5,269.18,335.87,240.42,410.44,257c.51.15.29.14,1.34.51.62.22.91.3,1,.54-.45.87-.83,2.93-1.7,3.55-2.32-.07-5.37-1.35-7.5-2C338,246.27,269.38,273,223.83,323c-9.37,10.35-12.47,15.23-19,24.48-.07.12-.52.83-.7.89s-.42-.48-.64-.86C203.09,346.67,202.79,346.79,201.94,345.78Z"/><path class="cls-2" d="M191.85,396.78c-1.53-2.18-.42-7.54-.57-7.06,1.21-12.44,8.83-20.54,14.13-32.1,33.46-56.68,99.09-96.24,163.41-96,5.17-.36,37.83-.21,38.46,6.25.74,6.61-6.2.47-9.93,0-4.87-2-21.56-1.75-23.58-1.75-65.36-3.75-134.8,41.68-164,94.53-5.33,8.25-12.71,25.43-15.86,34.4C194,395.65,192.94,397.7,191.85,396.78Z"/><path class="cls-2" d="M200.37,404a6.75,6.75,0,0,1-.7-1.95,7.06,7.06,0,0,1,.54-3.73c1.19-2.89,1.89-6,3.1-8.84,1.83-4.38,1.34-3.79,3.19-8.27a130.47,130.47,0,0,1,7.34-15.41,141.17,141.17,0,0,1,8.27-12.71c.9-1.28,3.34-4.73,6.76-9.12,1.71-2.2,5.84-7.48,10.82-13a179.28,179.28,0,0,1,22.05-20.4A190.65,190.65,0,0,1,285,295.19a187.77,187.77,0,0,1,19-9.38,158.19,158.19,0,0,1,23.36-8c5.91-1.52,10.42-2.29,13.47-2.81,11.65-2,20.12-2.29,32.36-2.75a112.09,112.09,0,0,1,16,.19,108.42,108.42,0,0,1,12.39,2c2.35.56,4.47,1.3,5.26,1.38a3.34,3.34,0,0,1,1.12.32,1,1,0,0,1,.42.25,1.24,1.24,0,0,1,.16.9c-.06.67-.2.75-.29,1.4-.08.5,0,.61-.13,1.24a1.49,1.49,0,0,1-.32.8,1.22,1.22,0,0,1-.48.32,7,7,0,0,1-3.19-.19,22.49,22.49,0,0,1-2.46-.77c-1.09-.41-1.5-.65-2.2-.95a21.36,21.36,0,0,0-4.4-1.12c-1-.19-2.42-.47-4.38-.7-2.23-.27-3.94-.33-4.81-.35-6.07-.2-12.41-.22-13.76-.23-7.55,0-7-.06-8.78,0-2.7.05-6.34.12-10.88.54a129.08,129.08,0,0,0-16.37,2.65c-1.72.38-5.2,1.17-9.58,2.43-1.2.34-6.89,2-14.42,4.88-1.54.59-4.48,1.74-8.17,3.35a187.7,187.7,0,0,0-23.78,12.35c-3.71,2.32-6.44,4.25-7.47,5-2.89,2.06-4.93,3.68-7.08,5.4-3.56,2.83-7.29,5.79-11.68,10-.78.75-2.52,2.43-5.78,5.88-6.43,6.81-13.48,14.28-20.3,24.22-3,4.34-5.27,8.23-5.74,9-.37.63-1.85,3.16-4,7.28-3.36,6.37-5.73,11.55-6.77,13.85-4.55,10.11-7.22,17.86-7.44,18.51a11,11,0,0,0-1,2.87c0,.16,0,.86-.36,1a.69.69,0,0,1-.35,0,1.4,1.4,0,0,1-.54-.22,2.43,2.43,0,0,1-.64-.74C200.54,404.16,200.56,404.28,200.37,404Z"/><path class="cls-2" d="M214.26,407c-.74-.54-1.07-.23-1.6-.64s-.58-1-.8-2.14a8.93,8.93,0,0,1-.19-2.49,8.42,8.42,0,0,1,1-3.22c1-2.12,1.67-4.42,2.71-6.54C220.22,382,221,378.82,226,370.13c.89-1.55,3.11-5.35,6.23-10a182.69,182.69,0,0,1,20.93-25.6c5.39-5.52,12.17-12.48,22-19.21,3.78-2.58,8.24-5.29,9.42-6,3.69-2.24,8.61-5.21,15.25-8.49,5.87-2.9,10.47-4.75,11.52-5.17a155.82,155.82,0,0,1,19.12-6.19,123.47,123.47,0,0,1,16.79-3.54c4-.54,7.13-.72,10.63-.93,6.42-.38,11.21-.35,16.37-.32,7.88.06,11.82.08,16.12.54a117.88,117.88,0,0,1,14.9,2.81c3.54.91,3.19,1.33,4.56,1.44a2.63,2.63,0,0,1,1.85.76,1.24,1.24,0,0,1,.32.71c0,.19,0,.69-.86,1.43a7.11,7.11,0,0,1-3.06,1.38,11.51,11.51,0,0,1-3.45.63,9.54,9.54,0,0,1-3.09-.83c-.7-.24-2.05-.58-4.76-1.27a66.6,66.6,0,0,0-8-1.5,87,87,0,0,0-9.83-.64c-7.3-.22-11.9-.36-18.51-.13-3.92.14-6.41.23-10,.61a114.18,114.18,0,0,0-13.37,2.3c-7.52,1.65-13.09,3.46-14.58,3.95a151.14,151.14,0,0,0-14.68,5.78c-1.44.65-5.06,2.31-9.61,4.75a177.09,177.09,0,0,0-20.39,12.83,197.63,197.63,0,0,0-19.28,17c-2.29,2.31-4,4.22-4.6,4.81a166.88,166.88,0,0,0-12,14.62,159,159,0,0,0-10.46,16.76,200.87,200.87,0,0,0-9,18c-3.21,7.36-5.44,13.81-5.56,14.17a8.09,8.09,0,0,0-.76,2.2c0,.1,0,.37-.16.45s-.4-.09-.8-.42C214.6,407.32,214.52,407.18,214.26,407Z"/><path class="cls-2" d="M233.82,408.39a3.18,3.18,0,0,1-1.69,1.15,3.26,3.26,0,0,1-2.65-.67,4.7,4.7,0,0,1-1.47-3,10.56,10.56,0,0,1,0-4.18,14.54,14.54,0,0,1,1.12-3.63c4.71-10.57,4.44-10.59,6.38-13.95,1.58-2.74,1.41-2.11,5.36-8.24,5.35-8.29,5.67-9.44,8.91-14,2.87-4.08,5.29-7,7.21-9.22A127.39,127.39,0,0,1,269,340c1.62-1.47,3.07-2.68,6-5.1,4.32-3.62,7.33-6.12,11.36-8.91,2.75-1.9,4.82-3.15,7-4.47a168.43,168.43,0,0,1,20-10.24c2.84-1.23,6.12-2.63,10.63-4.15a132.39,132.39,0,0,1,20.52-5,152.06,152.06,0,0,1,22.34-1.88c3.7-.1,6.43,0,8.68,0A75.66,75.66,0,0,1,390.68,302a54.9,54.9,0,0,1,6.61,1.91,50,50,0,0,1,8.26,4,16.48,16.48,0,0,1,3,2.2,9.11,9.11,0,0,1,2.9,3.83c.86,2.76-.46,6.56-3,7.63-1.26.52-2.43.22-4.12-.23-2.79-.74-4-1.93-7.63-4.05a51.6,51.6,0,0,0-5-2.65,48.28,48.28,0,0,0-9-3,74,74,0,0,0-7.82-1.5,111.45,111.45,0,0,0-26-.48,105.24,105.24,0,0,0-11.39,1.92,126.11,126.11,0,0,0-17.65,5.17,137,137,0,0,0-13.76,6.09A131.56,131.56,0,0,0,290.66,332c-2.93,2.05-5,3.71-6.45,4.85A177.38,177.38,0,0,0,265,355a124.32,124.32,0,0,0-11.74,14.33c-1.57,2.26-2.61,3.94-3.77,5.81-4.44,7.16-7.33,13.46-13.12,26a16.35,16.35,0,0,0-1.21,3.35c-.09.42-.13.68-.29,1.25A6.25,6.25,0,0,1,233.82,408.39Z"/><path class="cls-2" d="M257.47,408.94c-2.35-.95-2.62-.42-3.61-1.09-1.88-1.27-2.1-4-2.14-4.59-.09-1.83.57-3.21,1.63-5.14a86.51,86.51,0,0,1,5-8.05c3.47-4.84,2.25-3.45,5.87-8.52s5.58-7.77,7.79-10.37a97.37,97.37,0,0,1,9.74-9.77,120.86,120.86,0,0,1,11.93-9.6c6.1-4.29,12.44-8.67,21.45-11.49a50.84,50.84,0,0,1,20-2.27c2.58.1,4.2.26,5.49,1.47a6.88,6.88,0,0,1,1.82,3.77,10.25,10.25,0,0,1-.26,4.78,81.88,81.88,0,0,1-4.34,11.72c-1.2,2.88-.67,2.06-2.74,7.56-3.66,9.71-5.4,12.51-7.18,19.31a43.8,43.8,0,0,0-1.09,5.27,50.37,50.37,0,0,0-.29,9.19c.23,6,.85,9.5-.19,14.39a5.57,5.57,0,0,1-1.69,3.32c-1.83,1.54-4.68,1.23-6.51.45-3.36-1.44-4.45-5-4.76-6-.56-1.85-.38-3-.15-6.9,0,0,.19-4.5.31-8.93.08-2.73.16-5.56,0-9.26a46.17,46.17,0,0,0-1-9,18.28,18.28,0,0,0-1.76-4.88c-.89-1.66-1.54-2.87-2.9-3.58s-2.62-.52-5.17-.19a29.55,29.55,0,0,0-4.82,1.12,29.17,29.17,0,0,0-6.45,2.74,27.82,27.82,0,0,0-4.56,3.48,99.52,99.52,0,0,0-8.94,8.68s-4.93,5.56-12.09,17.21a23.26,23.26,0,0,0-2.43,4.34,2.44,2.44,0,0,1-.77,1.59,3,3,0,0,1-2.33.29A11.5,11.5,0,0,1,257.47,408.94Z"/><path class="cls-2" d="M340.19,410.66c-1.27-.53-1.63-2-2.1-3.89a15.53,15.53,0,0,1-.39-5.11,40.67,40.67,0,0,1,2.17-9.57c2.44-6.65,3.66-10,5.56-13.47a74.88,74.88,0,0,1,17.36-21,85.24,85.24,0,0,1,11.93-8.36c4.41-2.62,8.61-4.64,12.51-6.52,4.57-2.19,5-2.19,9.26-4.34a49.65,49.65,0,0,1,5.87-2.74,22,22,0,0,1,8.17-1.66c2.2,0,4.74.05,6.7,1.85.38.34,2.06,1.89,1.86,3.77-.1.87-.62,1.92-3.9,4a36.87,36.87,0,0,1-7.59,3.76c-4.94,1.71-6,1.54-12,3.26-5.1,1.46-8.66,2.82-9.77,3.25-.9.35-4.67,1.84-7.85,3.45-9.7,4.93-16.07,12.19-18.77,15.32a55.42,55.42,0,0,0-8.87,13c-3.21,6.74-4.92,14.21-5,17,0,.15-.19,1.69-.57,4.79a3.43,3.43,0,0,1-4.6,3.19Z"/><path class="cls-2" d="M356.15,408.36c-.78-.28-1.12-1.11-1.66-2.42a10,10,0,0,1-.7-2.68,16,16,0,0,1,.89-6.64,49.51,49.51,0,0,1,6.77-12.13,57,57,0,0,1,8.93-9.19,62.47,62.47,0,0,1,20.3-10.79,36.39,36.39,0,0,1,6.13-1.53c3.91-.57,6.75-.17,11.68.57,7.93,1.2,9,2.52,9.38,3.32a4.35,4.35,0,0,1,.19,3.39,4.55,4.55,0,0,1-2.8,2.36c-2.1.68-3.15-.49-7.47-1.41a36.48,36.48,0,0,0-5.68-.7,42.94,42.94,0,0,0-6.51.06,33.41,33.41,0,0,0-12.71,4.22,48.06,48.06,0,0,0-9.32,6.7c-4,3.42-6,5.14-8,8.17-3,4.52-4.83,10.26-4.92,12.51a11.45,11.45,0,0,1-.57,3.13,5,5,0,0,1-.71,1.53C358.72,407.75,357.3,408.77,356.15,408.36Z"/><path class="cls-2" d="M369.68,406.64a7.28,7.28,0,0,1,.32-4.15,19.71,19.71,0,0,1,2.87-5.68A34.47,34.47,0,0,1,380,389.4a30.17,30.17,0,0,1,10.59-5.68,29.52,29.52,0,0,1,12.39-.7,28.74,28.74,0,0,1,6.83,1.79c2.71,1.08,4.12,1.66,5.1,3.19,1.65,2.57.72,5.64.51,6.32-.32,1.06-1,3.19-2.87,4.15-1.75.88-3.64.29-6-.45-1.89-.59-2-1-4.6-2a21.38,21.38,0,0,0-5.23-1.59,15.33,15.33,0,0,0-7.4.83,15.63,15.63,0,0,0-5,3.12,13.71,13.71,0,0,0-2.56,2.88c-1.52,2.36-.92,3.25-2.36,5.49a6.72,6.72,0,0,1-3.51,3.19,5.12,5.12,0,0,1-5-1A4.79,4.79,0,0,1,369.68,406.64Z"/></g></svg>