<svg id="Слой_2" data-name="Слой 2" xmlns="http://www.w3.org/2000/svg" viewBox="0 0 400 400"><defs><style>.cls-1{fill:#29272c;}.cls-2{fill:#474249;}</style></defs><rect class="cls-1" x="-0.85" y="-0.85" width="401.7" height="401.7"/><path class="cls-2" d="M173.6,404.66c-.85-.24-1.14-1.65-1.47-3.26a14.49,14.49,0,0,1-.26-4.21,16.53,16.53,0,0,1,3-7.79c1.11-1.62,1.74-2.69,3.13-3.51a7.14,7.14,0,0,1,4-1c1.19.08,1.37.45,3.7.9a7.4,7.4,0,0,0,2.68.25,5.13,5.13,0,0,0,3.06-2.17c1.76-2.22,2.23-4.41,2.88-6.57,1.05-3.55,2.38-8,5.61-11a9.37,9.37,0,0,1,4.54-2.68c1.48-.31,2.07.06,6.19.44a17.87,17.87,0,0,0,5,.13,10,10,0,0,0,5.17-3.45c4.92-5.5,7.72-10.71,10.85-14.8a48,48,0,0,1,8.36-8.37c4.8-4,9.05-6.22,14-8.87a88.76,88.76,0,0,1,10.92-5.17c2-.74,7.39-2.68,9.19-5.74a4.89,4.89,0,0,0,.76-2.94,7.23,7.23,0,0,0-.95-2.36,7,7,0,0,1-.07-5.55c.56-1.13,1.56-1.73,3.51-2.88a28.06,28.06,0,0,1,4.79-2.23c3.68-1.27,6.47-2.47,10.6-3.57,1.51-.41,3-.92,4.53-1.22,2.74-.54,4.45-.52,5.1-1.72a2.78,2.78,0,0,0,.2-1.79c-.2-1.22-1-1.6-1.66-2.74a6.85,6.85,0,0,1-1-4.22,6.07,6.07,0,0,1,2.17-3.63c.82-.72,2.09-1.51,7.34-2.17,1.57-.2,1.06,0,6.57-.51,6.18-.52,1.78-.28,4.47-.52,2.49-.21,3.74-.2,4-.89.19-.45-.15-.89-.7-1.91a21.57,21.57,0,0,1-1.59-3.9c-.24-.91-.69-2.68.06-4,.35-.62,1.11-1.43,4.72-2.11,4.44-.82,5.61,0,9.7-1,1.94-.44,3.6-1.06,4.66-2.49a4.43,4.43,0,0,0,.9-2c.16-1.06-.21-1.57-.51-3a7,7,0,0,1-.13-3.9c.17-.42.69-1.39,3.45-2.42,1.7-.64,3.51-1,9-1.47,3-.25,4.62-.31,5.36-1.47a5.11,5.11,0,0,0,.44-2.3c.18-2.2-.28-2.5-.06-4a5.56,5.56,0,0,1,2-3.7,4.84,4.84,0,0,1,2.43-.64c.32,0,4.82-.45,6.38-.63,4.38-.51,5.5-1.42,6-1.92a3.78,3.78,0,0,0,1.21-2c.2-1.1-.35-1.54-.51-3.19a4.94,4.94,0,0,1,.32-2.88c.25-.44.83-1.15,3.51-1.85,2.5-.64,3.22-.34,6.07-.83,2.45-.42,3.69-.65,4.72-1.59a7,7,0,0,0,1.92-3.7c.3-1.6-.2-2.07.19-3.51a6.36,6.36,0,0,1,1.85-3c2.27-2,5.72-1.51,7.79-.64,1.12.47,3.68,1.55,4.14,4,.54,2.87-2.78,5.45-3.31,5.87-1.14.9-1.47.7-3.45,2.17a16.67,16.67,0,0,1-2.81,2,10.29,10.29,0,0,1-2.87.89c-1.89.35-2.09,0-4.79.13-.16,0-.1,0-4.91,1a2.27,2.27,0,0,0-1.54.83,2.18,2.18,0,0,0-.19,1.47,5.69,5.69,0,0,0,.77,1.91,5.43,5.43,0,0,1,.25,3.26,5.88,5.88,0,0,1-2.1,3.51,6.37,6.37,0,0,1-2.75,1.08c-1.37.3-2.18.24-5.55.13-3.07-.1-4-.1-5,.45a3.59,3.59,0,0,0-1.79,1.59c-.12.26-.3.73-.06,3.13a16.27,16.27,0,0,1,.25,3.19,4.46,4.46,0,0,1-.51,2c-.17.29-.79,1.2-3.51,1.92a32.33,32.33,0,0,1-4.85.64c-.68.07-2.14.24-4,.51a13.88,13.88,0,0,0-3.76.89c-1.88.81-2.33,1.65-2.43,1.85a2.82,2.82,0,0,0-.26,1.92c.24.89.85,1,1.6,2a4.58,4.58,0,0,1,1,3.19,4,4,0,0,1-1.47,2.49c-.87.7-1.7.75-4.08,1.08-1.26.18-2.51.43-3.77.58a39.83,39.83,0,0,0-8.3,1.66c-2.11.66-2.57,1.05-2.87,1.53-1,1.63.53,4.47.7,4.79.62,1.1,1.16,1.4,1.22,2.36a3.53,3.53,0,0,1-.83,2.3,3.81,3.81,0,0,1-1.73,1.14c-2.61.94-5.36.15-9.12.39-1.39.08-.46.16-5.68,1a8.66,8.66,0,0,0-4,1.34,4.68,4.68,0,0,0-1.72,1.91,5.34,5.34,0,0,0,.38,4.41c.55,1.13,1.3,1.07,1.92,2.36a4.93,4.93,0,0,1,.51,2c-.2,2.19-4.93,3.2-7.21,3.7-4,.9-4.24.2-8.43,1.09a24.73,24.73,0,0,0-7.53,2.68c-2.69,1.59-3.59,2.2-4,3.13a6.53,6.53,0,0,0-.19,4.15c.47,2.41,1.82,2.68,1.85,4.08s-1,2.72-5.24,5.24a48.93,48.93,0,0,1-9,4.14c-5.13,1.75-8.57,3.64-14.36,6.83-5.19,2.86-9.76,5.38-14.55,10.09a107.75,107.75,0,0,0-8,9.57c-1.58,2-3.42,4.41-7.09,9.26-2.5,3.3-5.83,6-7.79,9.7-.64,1.2-1.52,3.05-3.25,3.45-1.17.27-1.63-.39-4-1.09a14.44,14.44,0,0,0-6.83-.57,8.87,8.87,0,0,0-3.9,1.59c-2,1.53-2.7,3.66-3.63,6.64-1,3.34-.59,3.92-1.79,6.83-1.33,3.23-2.57,4.17-3,4.47a8.32,8.32,0,0,1-4,1.34,13.18,13.18,0,0,1-4.09-.32c-2.05-.4-2.24-.78-3.38-.7a5.53,5.53,0,0,0-3.32,1.47c-1,1-1.3,2.17-1.79,4.47-.6,2.82-.18,3.32-.89,4.78S174.67,405,173.6,404.66Z"/><path class="cls-2" d="M207.17,408.81c-2-.92-2.42-3.74-2.68-5.43s-.09-2.39.13-6c.34-5.89,0-7.32,1.34-9a6.82,6.82,0,0,1,2.87-2.1c3.88-1.55,6.42,1.54,10.91.51a11.32,11.32,0,0,0,4.22-2.17,21.37,21.37,0,0,0,6.64-8.24,58.28,58.28,0,0,1,13.14-15.83c1.89-1.57,3-2.17,14.11-7.91,5.25-2.71,10.35-5.74,15.77-8.11,1.61-.71,5.07-2.18,5-4.08,0-1.65-2.65-2.41-3.19-5.11a5.38,5.38,0,0,1,.32-3.06,6.42,6.42,0,0,1,3.38-3.07c9.53-4.5,10.72-4.85,10.72-4.85,12-3.52,16.27-3.84,17-6.51.23-.84-.31-2.06-.76-3.32-.8-2.17-1.46-2.32-1.66-3.64-.4-2.59,1.77-4.77,1.91-4.91a7.36,7.36,0,0,1,4.53-1.85c10-1.12,16.73-.25,17.62-2.36.55-1.31-1.75-2.36-2-6.2,0-.94-.17-3,1.09-4.4.87-1,2.05-1.24,4.4-1.53,6.85-.84,8.56-.05,11.3-1.47,1.15-.6,2.94-1.53,3.45-3.32.65-2.32-1.49-3.78-.71-6.57a5.78,5.78,0,0,1,2.11-3,6.76,6.76,0,0,1,3.51-1.09c6-.67,7.72-.28,10.21-1.53a4.52,4.52,0,0,0,2.37-2c.69-1.47-.31-2.39-.2-4.79,0-.57.23-3.4,2.11-5,.37-.32,1-.75,4-1.34,4.76-.92,6.13-.4,8.55-1.66,1-.52,2.58-1.34,2.81-2.74.17-1-.48-1.43-1-3.64-.37-1.53-.6-2.49-.19-3.32.33-.67,1-1.13,3.77-1.79,3.87-.92,4.74-.53,7.21-1.4,1.74-.62,3.16-1.12,4-2.49.55-.95.26-1.39.83-4,.45-2.06.7-3.1,1.4-3.77,1.49-1.39,3.91-.9,4.28-.83,2.3.47,4.58,2.39,4.91,4.73.26,1.81-1.14,3.51-4,6.89-2.43,2.94-4.06,3.84-5.1,4.28a12.75,12.75,0,0,1-2.49.76c-1.79.32-2.38-.07-4,.32-1,.24-2.16.52-2.56,1.41s.14,1.39.58,2.74c.36,1.11,1.22,3.78.25,5.75-.88,1.79-3,2.4-3.76,2.61-1.66.48-2.46.09-4.85-.06-3-.19-6.82-.42-8.17,1.47-.45.63-.45,1.89-.45,4.4,0,2.75.37,3.39-.19,4.41s-1.71,1.57-3.32,2.23a17.81,17.81,0,0,1-5.17,1.21c-4.05.4-5-.5-7.09.51-.45.23-2.4,1.17-2.68,2.81-.16,1,.41,1.37,1.15,3.39s1.29,3.48.77,4.66c-.69,1.55-2.86,2-4.28,2.29-2.15.45-2.53-.09-5.3,0a22.19,22.19,0,0,0-7.53,1.73c-3.37,1.23-3.6,2-3.64,2.29-.1.84.86,1.13,1.85,2.75.4.65,1.88,3.06,1,5.17-.78,1.91-3.06,2.54-3.58,2.68-1.66.46-2.45,0-4.66-.25a19.57,19.57,0,0,0-7.85,1c-2.53.74-5,1.48-5.42,3.25-.16.67.14,1.3.7,2.55,1,2.23,1.84,2.39,2.17,3.77a5.46,5.46,0,0,1-1,4.09c-.48.69-1.33,1.45-4.34,2.42a35.94,35.94,0,0,1-5.81,1.28,91.46,91.46,0,0,0-9.45,3.06,38,38,0,0,0-8.23,4.28c-.42.29-1.34,1-1.34,1.85,0,.73.63,1.07,1.28,2a7.84,7.84,0,0,1,1.21,3.64,7.44,7.44,0,0,1-1.4,4.53c-1.37,2.15-2.69,2.64-7.28,5.74-1.39.94-3.85,2.63-6.64,4.79a70.08,70.08,0,0,0-5.55,4.66c-1.65,1.56-3,3-3.9,4-2.38,2.69-2.85,3.71-6.44,8a14.54,14.54,0,0,1-4.09,3.83,11.78,11.78,0,0,1-3.76,1.41,12.3,12.3,0,0,1-4,.06c-1.79-.26-2-.7-4.15-1a8.43,8.43,0,0,0-2.87-.13c-.56.1-1.51.37-3.9,2.49a23.28,23.28,0,0,0-5.17,6,11.31,11.31,0,0,0-1.21,2.62c-.58,2-.08,2.78-.32,4.72a9.88,9.88,0,0,1-2.36,5.36,8.6,8.6,0,0,1-4.34,2.69,9.72,9.72,0,0,1-5-.26c-1.9-.58-2.4-1.34-3.9-1.21a4.54,4.54,0,0,0-2.61,1.15,5.2,5.2,0,0,0-1.54,2.8c-.55,2.31.51,3.05,0,5.69a3.46,3.46,0,0,1-1.27,2.55A3.09,3.09,0,0,1,207.17,408.81Z"/><path class="cls-2" d="M249.43,407a13.15,13.15,0,0,1-8.17-5.3c-.93-1.14-2.09-2.59-1.66-4s1.86-1.88,2.42-2.11c1.73-.69,3.37-.37,6,.19,2.8.6,2.86,1,4.41,1a7.78,7.78,0,0,0,4.85-1.46c1-.74,1.54-1.64,2.55-4a53.09,53.09,0,0,0,2.36-6.71c.82-3.1,2.55-5.56,6-10.46A83.65,83.65,0,0,1,282,359c4.61-4.1,6.92-6.14,10.15-7.79a69.28,69.28,0,0,1,13.09-4.91c2.88-.71,5.81-1.18,8.23-3.64.59-.59,2.4-2.43,2-4.34-.1-.58-.69-1.38-1.85-3-1.29-1.79-1.63-2-1.79-2.81a4.22,4.22,0,0,1,.71-3.06,5.62,5.62,0,0,1,3.7-1.92c1.59-.33,9.25-2,9.25-2a27.25,27.25,0,0,0,8.17-2.36,3.72,3.72,0,0,0,2.17-2c.16-.46.27-1.28-1.21-4.14-1.59-3.09-2.37-3.42-2.23-4.54.21-1.71,2.25-2.79,3.13-3.25s2-.78,4.66-1.09c3.78-.43,7.53-.64,7.53-.64,3.44-.19,4.92-.19,5.49-1.21a3.18,3.18,0,0,0,.06-2.1,9.11,9.11,0,0,0-1.47-3.45c-.9-1.49-1.27-1.61-1.34-2.36a3.17,3.17,0,0,1,1.15-2.56,4.37,4.37,0,0,1,2.94-.76c2.42,0,4.8-.67,7.21-.9,3.62-.33,5.45-.52,6.26-1.4a4,4,0,0,0,1-3.26c-.29-1.6-1.63-1.63-2.37-3.51a4.76,4.76,0,0,1,.39-4.46,4,4,0,0,1,2.49-1.34c6.48-1.37,11.14.7,13.08-1.47,1.43-1.6,1-5.07,1-5.49-.18-1.51-.67-2.29-.26-3.58a4.89,4.89,0,0,1,2.17-2.55,6,6,0,0,1,3.07-.7c3.68-.09,8.09-.19,9.25-2.17.24-.4.22-1.46.2-3.58s-.28-3,.25-3.83a3.68,3.68,0,0,1,2.49-1.46c2.71-.43,4.78,2.24,4.91,2.42,1.38,1.84,1.26,3.87,1.15,5.75-.09,1.66-.29,5-2.23,5.93-1,.45-1.36-.14-4.28-.44a23.47,23.47,0,0,0-5.36.06c-2.82.3-4.24.45-5,1.53s-.46,2.37-.25,3.51c.4,2.24,1.39,2.59,1.4,4.41a4.37,4.37,0,0,1-1,2.93c-.51.57-1.35,1.06-4.46,1.21-3.35.17-4.07-.32-6.83-.12-2.36.16-4.28.3-4.92,1.53s.21,3.05.7,4.15c.6,1.32,1,1.46,1.34,2.68A4.46,4.46,0,0,1,376,294a4,4,0,0,1-2,2,5.44,5.44,0,0,1-3.19.19,28.47,28.47,0,0,0-7.41.26c-4.1.46-4.71,1.34-4.91,1.72a3.69,3.69,0,0,0-.07,2.49c.34,1.57,1.05,1.8,1.79,3.58.53,1.27,1.06,2.52.57,3.7-.54,1.33-2.1,1.85-3.06,2.17a10.94,10.94,0,0,1-4,.38,34.65,34.65,0,0,0-7.85.45c-2.58.53-3.63,1.25-4.21,2.17a3.53,3.53,0,0,0-.58,1.66c0,.51.05,1.14,1.47,3.76a12,12,0,0,1,1,2,4.65,4.65,0,0,1,.13,3.07,4.42,4.42,0,0,1-2.24,2.29,7.92,7.92,0,0,1-3.95.83c-.82,0-.53.08-7.54,1.85s-8.79,2.1-9.12,3.39a4.16,4.16,0,0,0,.76,2.74c.78,1.47,1.46,1.49,2.43,3.07.56.9,1.28,2.08,1,3.25-.3,1.38-1.81,2.13-2.55,2.49-5.27,2.52-12.19,4.11-17.43,6.26a45.54,45.54,0,0,0-9.89,5.68,56.83,56.83,0,0,0-5,4.4c-6.7,6.27-7.84,7.57-12.2,11.68-6.89,6.51-8.38,7.34-10.27,10.79a47.84,47.84,0,0,0-2.88,7.53c-3.28,9.84-2.61,11.59-5,14A12.17,12.17,0,0,1,249.43,407Z"/><path class="cls-2" d="M281.72,406.13c-3.17-.65-5.36-1.12-7.15-3-.63-.67-1.89-2-1.66-3.51.32-2,3.11-3.31,5.24-3.51,1.24-.12,2.8.34,5.94,1.27,2.78.83,3.05,1.09,3.82,1,2.39-.39,3.64-3.48,4.6-5.49,0,0,2.32-4.86,8.55-11.74a40.7,40.7,0,0,1,13.73-10.54c2.9-1.29,6.87-2.56,7.21-5.17a5.67,5.67,0,0,0-.64-2.87c-.93-2-2.13-2.15-3.13-4.08-.26-.52-1.18-2.3-.7-3.83s2.36-2.34,5.81-3.39c10.12-3.07,15.18-4.6,16.21-4.78s2.83-.48,3.64-1.92a3.31,3.31,0,0,0,0-3.13c-.63-1.09-1.57-.9-2.81-2-1-.86-2.16-2.52-1.91-3.9.32-1.77,2.95-2.6,6.57-3.7a60,60,0,0,1,8.75-1.85c4.16-.55,6.06-.41,6.57-1.6s-.84-3.18-1.21-3.7c-1-1.44-1.77-1.35-2.49-2.68a4.44,4.44,0,0,1-.45-3.57c.6-1.51,2.55-2,4.47-2.43,8.35-1.86,12.63-1.47,13.21-3.19.34-1-1-1.43-1.53-4.09-.11-.6-.64-3.36.83-5.42.38-.54,1.27-1.55,4.21-2.36,6-1.67,10,.42,11.11-1.34.43-.69-.13-1.06-.51-3.83s-.76-5.52.64-7.22c.29-.35.76-.78,4.79-1.66,3.82-.83,5.73-1.24,8-1.15,1.72.08,6.19.28,6.71,2.17.33,1.22-1,3-2.56,3.58s-2.26-.2-5.23-.45c-2-.16-5.09-.43-6.06,1.09-.72,1.11-.06,2.83.44,4.15.84,2.19,1.85,2.56,1.79,4a4.24,4.24,0,0,1-1.79,2.94c-1.6,1.12-3.06.42-6.06.45-.94,0-7.13.06-8.17,2.68-.28.7.27,1.86,1.27,4.15.86,1.93,1.36,2.46,1.28,3.57a4.19,4.19,0,0,1-1.47,2.75c-1.13.89-2.34.69-4.4.7a73.67,73.67,0,0,0-8.24,1.08c-3.94.62-4.74.95-5,1.66-.5,1.19.61,2.88,1.15,3.7,1.17,1.79,2.14,1.84,2.43,3.13a4.16,4.16,0,0,1-.9,3.19c-.76,1-1.91,1.6-4.59,2.11-4.56.87-5.63,0-9,.83-1.39.36-4.72,1.22-5,3.06-.17,1,.68,2.11,2.37,4.41,1.36,1.85,2.11,2.45,2.1,3.57a3.73,3.73,0,0,1-1.27,2.49c-2.77,2.78-7.39,2.23-13.28,3.39-1,.2-10.34,2-10.53,5-.12,1.85,3.41,2.46,4.59,6.51a5.36,5.36,0,0,1-.12,4c-.92,1.65-3,2.11-3.71,2.29-4.56,1.15-8.85,4.23-15.12,8.75-2.68,1.92-5.17,4.92-10.15,10.91-7.8,9.38-7.91,12.07-7.73,13.54.15,1.11.61,2.61-.25,3.82-.32.45-1.1,1.27-5,1.6A26.25,26.25,0,0,1,281.72,406.13Z"/><path class="cls-2" d="M304.19,402.49c-.71-2.8,3.35-5.8,6.77-9,6.31-5.91,4.2-6.45,9.76-11.68a40.71,40.71,0,0,1,13.92-8.87c3.85-1.41,7.47-3.49,11.42-4.6,1.47-.41,3.49-.91,4-2.43s-1-3.44-1.66-4.4c-1.48-2-2.52-2-2.81-3.45a3.72,3.72,0,0,1,1.08-3.38,3.94,3.94,0,0,1,2.36-.89s1.69-.16,8.94-1.47a69.37,69.37,0,0,0,6.77-2.17c.87-.3,1.8-.64,2-1.41.16-.51,0-1.08-1.66-3.38-1.79-2.53-2.3-2.91-2.43-4a4,4,0,0,1,.9-3c.84-1,2.09-1.32,3.95-1.53,6-.67,8.84.91,11.17-1a3.4,3.4,0,0,0,1.22-1.53c.41-1.12,0-2.2-1.53-5.93-1-2.47-1.29-3.05-1-3.83a4.13,4.13,0,0,1,2.3-2.11,7.74,7.74,0,0,1,3-.45c1.56-.07,3.11-.17,4.66-.25,3-.16,3.61-.28,4.28-.7a4.2,4.2,0,0,0,1.79-2.24c.38-1.35-.21-2.62-.83-4-.85-1.81-1.45-1.93-1.47-2.93,0-1.68,1.63-2.92,1.91-3.13a8.21,8.21,0,0,1,3.45-1,11.8,11.8,0,0,1,4.66-.26c1,.2,2.63.53,3,1.66a2.07,2.07,0,0,1-.51,2c-.93.93-2.23.11-3.64,1.15a2.45,2.45,0,0,0-1,1.21c-.28.92.24,1.79,1,2.94,2.32,3.72,2.71,3.86,2.68,4.6-.09,2.1-3.38,3.47-3.64,3.57s-1.16.43-4.85.45c-3.24,0-4.26-.21-6.38.19-2.51.47-3,1.13-3.26,1.53a3.48,3.48,0,0,0,.13,2.81c.64,1.52,1.6,1.48,2.87,3.38a4.07,4.07,0,0,1,1,2.56,3.94,3.94,0,0,1-1.85,2.74c-.87.61-1.78.81-3.7,1-2.18.16-3.5.09-5.93.06-4,0-4.95.12-5.69.83a3.42,3.42,0,0,0-1,2.55c.05.69.57,1.38,1.6,2.75,2,2.72,2.39,3.14,2.49,4a3.61,3.61,0,0,1-.7,2.61,3.52,3.52,0,0,1-1.92,1.09,13.85,13.85,0,0,1-4.91.32,32.69,32.69,0,0,0-6,.76c-5.32.93-6.06,1.74-6.39,2.37a3.83,3.83,0,0,0-.25,2.42c.19.81.6,1.21,1.47,2.24,1.7,2,2.56,3,2.8,4a3.89,3.89,0,0,1-.38,3.06c-.73,1-2,1.17-3.51,1.47-2.12.41-4.15,1.24-6.25,1.72a55,55,0,0,0-10.09,3.58c-3.81,1.81-6.84,3.3-7.08,5.74a5.91,5.91,0,0,0,.83,3.19c.85,1.44,1.77,1.51,2.74,3.13a5.36,5.36,0,0,1,1,2.81c0,1.56-1.05,2.65-3,4.66s-2.79,2.24-4.15,4a19.26,19.26,0,0,0-2.11,3.57C324,406.64,316.6,409,311,407.6a10.48,10.48,0,0,1-6-3.64A4.12,4.12,0,0,1,304.19,402.49Z"/><path class="cls-2" d="M342,403.06c-1.23-1.44-.27-3.68.38-4.66a6.33,6.33,0,0,1,2.3-1.91c3.8-2.28,5.49-3.06,5.49-3.06,5.4-2.52,6.79-2.75,7.34-4.28a4.21,4.21,0,0,0-.13-2.87c-.67-1.52-1.93-1.45-3.45-3.19-.65-.77-1.79-2.07-1.65-3.58.17-2,2.54-3.3,3.76-4,1.06-.57,1.68-.7,6.13-1.66,2.2-.47,4.36-1.13,6.57-1.53,2.49-.45,3.81-.54,4.22-1.47.33-.77-.16-1.67-.71-2.68-1.18-2.18-2.29-2.17-3.25-4.08-.34-.68-1.13-2.26-.51-3.64.53-1.2,1.86-1.65,3.06-2,1.83-.6,2.72-.42,5.75-.58,4.18-.22,5.79-.75,7.08-1.59s1.43-1.36,1.53-1.73c.3-1.07-.33-2.13-1.21-3.57-1.07-1.76-1.57-1.8-2-3-.14-.41-.71-2.12.07-3.26.5-.74,1.33-.86,4.14-1.21,0,0,3.72-.46,6.71-1a7.21,7.21,0,0,0,4.15-1.66,2.32,2.32,0,0,0,.89-1.59c0-.73-.59-1-1.4-2.24a9,9,0,0,1-1.09-2.23,4.42,4.42,0,0,1-.19-3.13,3.76,3.76,0,0,1,1.91-1.72,7.9,7.9,0,0,1,4.41-.83,8.84,8.84,0,0,1,6.51,4c2.43,3.92,1.23,9.53-1.6,11.36-1.07.7-2.73.89-6.06,1.28-1,.12-1,.07-3.45.32a20.26,20.26,0,0,0-5.3,1c-1.36.48-2.3.84-2.55,1.65s.26,1.5,1.15,2.81c1.46,2.16,2.24,2.21,2.74,3.64a3.91,3.91,0,0,1-.12,3.26,3.64,3.64,0,0,1-2.05,1.34,11.94,11.94,0,0,1-4.72.44c-3.18-.1-5.54-.15-7.91.9-1,.42-2.38,1.05-2.56,2.17-.13.88.61,1.34,2.24,3.64,2,2.77,2.08,3.83,2.1,4.34a3.45,3.45,0,0,1-.76,2.55c-.8.81-1.9.71-3.45.77a47.8,47.8,0,0,0-6.64,1.08l-5.42,1.47c-1.93.52-3.17.88-3.71,2a2.93,2.93,0,0,0-.19,1.72c.4,2,2.65,2.06,4.41,4.66a4.59,4.59,0,0,1,1,3.58,3.84,3.84,0,0,1-1.47,2,6.22,6.22,0,0,1-2.94,1.15c-2,.38-3.7,1.21-7.08,2.88a21.11,21.11,0,0,0-4.28,2.61,10.67,10.67,0,0,0-2.3,2.3c-1.33,1.93-.91,3-2,3.7A3.27,3.27,0,0,1,342,403.06Z"/><path class="cls-2" d="M363.11,403.19c-.18-.16-1.48-1.42-1.15-2.62.25-.93,1.37-1.36,2.36-1.72a52.53,52.53,0,0,1,7-2.17,46.48,46.48,0,0,0,8.68-2.3,2.85,2.85,0,0,0,1.78-1.53,3.05,3.05,0,0,0-.57-2.42c-.87-1.46-1.66-1.43-2.87-2.75-.63-.68-2.19-2.38-1.85-4.28a4.3,4.3,0,0,1,2.1-2.68c1-.58,1.88-.6,3.58-.63,3.86-.07,5.48-.06,7.4-.26,3.48-.37,4-1,4.21-1.4.51-1,0-2.2-.31-2.94-.61-1.45-1.28-1.57-2.62-3.58-.88-1.3-1.31-2-1.28-2.87a3.78,3.78,0,0,1,1.47-2.61c1.08-.85,2.05-.65,4.66-.77,4.42-.21,4.93-.92,7-.32.21.06,3.32,1,3.32,2.43,0,1.16-2.15,2.5-3.83,2.23-1-.15-1.29-.76-2.49-.77a2.45,2.45,0,0,0-2,.71c-.54.78,0,2,.32,2.68.64,1.41,1.31,1.79,2.74,3.44,1.7,2,2.55,3,2.56,4.22a3.62,3.62,0,0,1-1.54,2.93c-.93.61-1.7.31-4.78,0-1.92-.19-3.11-.21-5.49-.25a8.88,8.88,0,0,0-4.47.64,4.37,4.37,0,0,0-1.79,1.46,3.14,3.14,0,0,0-.64,2.17c.13.78.64,1.06,2.17,2.49a11,11,0,0,1,2.49,2.75,4.2,4.2,0,0,1,.26,3.38,3.69,3.69,0,0,1-1.41,1.6c-.85.56-1.52.56-3.95.83-.73.07-1.66.2-3.51.44-2.21.29-2.85.41-3.58.9a7.56,7.56,0,0,0-1.53,1.59c-1.59,1.94-1.43,2.41-2.17,3-.9.72-2.34.58-5.23.32C364.26,404.19,363.42,403.49,363.11,403.19Z"/><path class="cls-2" d="M400.45,397.77c-1.45,0-2.36-2.14-2.43-2.3-.9-2.16.16-4.36.83-5.75s1-2.09,2-2.55a3.82,3.82,0,0,1,4.47,1c1.25,1.79-.52,4.59-2,6.9C402.4,396.54,401.58,397.8,400.45,397.77Z"/></svg>