<svg xmlns="http://www.w3.org/2000/svg" viewBox="0 0 45 45"><defs><style>.cls-1{fill:#406b8e;}.cls-1,.cls-2{stroke:#00456a;stroke-miterlimit:10;}.cls-2{fill:#fff;}.cls-3{fill:#333;}.cls-4{fill:#00456a;}.cls-5{fill:#1a1a1a;}</style></defs><g id="Слой_1" data-name="Слой 1"><rect class="cls-1" x="10.77" y="4.19" width="23.95" height="36.63" rx="2.9" transform="matrix(0.74, 0.68, -0.68, 0.74, 21.24, -9.46)"/><rect class="cls-2" x="11.59" y="28.18" width="5.79" height="6.51" rx="1.17" transform="translate(26.47 -1.04) rotate(45)"/><path class="cls-3" d="M34.69,23a1.33,1.33,0,0,1-.91-.35l-1.14-1.05a1.35,1.35,0,0,1-.08-1.9l2.61-2.83a1.35,1.35,0,0,1,1-.43,1.33,1.33,0,0,1,.91.35l1.14,1.05a1.35,1.35,0,0,1,.08,1.9l-2.6,2.83A1.35,1.35,0,0,1,34.69,23Z"/><path class="cls-4" d="M36.16,16.77a1,1,0,0,1,.66.26l1.13,1A1,1,0,0,1,38,19.45l-2.6,2.83a1,1,0,0,1-.72.31,1,1,0,0,1-.66-.26l-1.13-1a1,1,0,0,1-.06-1.38l2.6-2.82a1,1,0,0,1,.72-.32m0-.75h0a1.72,1.72,0,0,0-1.27.56l-2.6,2.83a1.73,1.73,0,0,0,.1,2.43l1.14,1.05a1.72,1.72,0,0,0,1.16.45A1.7,1.7,0,0,0,36,22.78L38.56,20A1.77,1.77,0,0,0,39,18.72a1.72,1.72,0,0,0-.56-1.2l-1.14-1A1.67,1.67,0,0,0,36.16,16Z"/><rect class="cls-5" x="34.68" y="18.47" width="1.49" height="2.43" rx="0.4" transform="translate(-3.04 32.43) rotate(-47.39)"/></g></svg>