<svg xmlns="http://www.w3.org/2000/svg" viewBox="0 0 45 45"><defs><style>.cls-1,.cls-5{fill:#406b8e;}.cls-1{stroke:#00456a;stroke-miterlimit:10;stroke-width:2px;}.cls-2{fill:#fff;}.cls-3{fill:#1c1d23;}.cls-4{fill:#131821;}</style></defs><g id="Слой_1" data-name="Слой 1"><circle class="cls-1" cx="22.7" cy="22.5" r="20.07"/><circle class="cls-2" cx="22.7" cy="22.5" r="16.83"/><path class="cls-3" d="M22.67,13.61h.06a.84.84,0,0,1,.84.84v6.38a0,0,0,0,1,0,0H21.83a0,0,0,0,1,0,0V14.45A.84.84,0,0,1,22.67,13.61Z"/><path class="cls-4" d="M16.43,23.85H21.9a0,0,0,0,1,0,0v2.3a0,0,0,0,1,0,0H16.43A1.15,1.15,0,0,1,15.28,25v0A1.15,1.15,0,0,1,16.43,23.85Z" transform="matrix(0.87, -0.5, 0.5, 0.87, -10.01, 12.64)"/><circle class="cls-5" cx="22.7" cy="22.5" r="3.03"/><circle class="cls-2" cx="22.7" cy="22.5" r="1.68"/><circle class="cls-5" cx="36.39" cy="22.5" r="1.74"/><circle class="cls-2" cx="36.39" cy="22.5" r="0.91"/><circle class="cls-5" cx="22.7" cy="36.51" r="1.74"/><circle class="cls-2" cx="22.7" cy="36.51" r="0.91"/><circle class="cls-5" cx="8.84" cy="22.5" r="1.74"/><circle class="cls-2" cx="8.84" cy="22.5" r="0.91"/><circle class="cls-5" cx="22.7" cy="8.95" r="1.74"/><circle class="cls-2" cx="22.7" cy="8.95" r="0.91"/></g></svg>