<svg id="Слой_1" data-name="Слой 1" xmlns="http://www.w3.org/2000/svg" viewBox="0 0 80 20"><defs><style>.cls-1{fill:#4a6ada;}</style></defs><polygon class="cls-1" points="13 18.09 5.65 14.67 5.67 6.16 13.02 9.37 13 18.09"/><polygon class="cls-1" points="5.91 5.29 13.52 1.91 21.13 5.29 13.52 8.48 5.91 5.29"/><polygon class="cls-1" points="14.02 18.08 13.95 9.36 21.76 5.97 22.02 14.61 14.02 18.08"/><path d="M35.9,11.45a1.69,1.69,0,0,1-.73,1.4,3.27,3.27,0,0,1-2,.53,5.86,5.86,0,0,1-1.26-.12,7.46,7.46,0,0,1-1-.32v-1.4h.17a3.29,3.29,0,0,0,1,.57,3.43,3.43,0,0,0,1.11.2l.36,0a1.6,1.6,0,0,0,.36-.08,1,1,0,0,0,.28-.18.38.38,0,0,0,.11-.31.41.41,0,0,0-.16-.33,1.21,1.21,0,0,0-.47-.21L33,11a4.51,4.51,0,0,1-.68-.17,2.22,2.22,0,0,1-1.06-.65,1.6,1.6,0,0,1-.32-1,1.56,1.56,0,0,1,.73-1.33,3.18,3.18,0,0,1,1.87-.51,5.35,5.35,0,0,1,1.13.11,5.24,5.24,0,0,1,1,.28V9.09h-.16a3,3,0,0,0-.87-.47,2.86,2.86,0,0,0-1-.19l-.37,0a1.61,1.61,0,0,0-.36.1.68.68,0,0,0-.26.18A.4.4,0,0,0,32.5,9a.4.4,0,0,0,.18.35,2,2,0,0,0,.66.23l.62.13a5,5,0,0,1,.63.17,2.06,2.06,0,0,1,1,.59A1.48,1.48,0,0,1,35.9,11.45Z"/><path d="M40.82,13.28H39.41V11.1a4.84,4.84,0,0,0,0-.53,1.24,1.24,0,0,0-.09-.38.49.49,0,0,0-.23-.22,1.17,1.17,0,0,0-.42-.06,1.32,1.32,0,0,0-.39.06,2.29,2.29,0,0,0-.43.2v3.11H36.41V7.2h1.41V9.38a3.24,3.24,0,0,1,.72-.45,1.77,1.77,0,0,1,.77-.16,1.47,1.47,0,0,1,1.11.42,1.67,1.67,0,0,1,.4,1.23Z"/><path d="M44.34,12.81l-.28.21a1.9,1.9,0,0,1-.32.19,1.66,1.66,0,0,1-.43.14,2.46,2.46,0,0,1-.49.05,1.5,1.5,0,0,1-1-.39,1.29,1.29,0,0,1-.42-1,1.26,1.26,0,0,1,.22-.78,1.29,1.29,0,0,1,.61-.48,3.33,3.33,0,0,1,1-.25c.38,0,.78-.09,1.19-.11v0a.49.49,0,0,0-.29-.5,2.2,2.2,0,0,0-.88-.14,2.27,2.27,0,0,0-.74.13l-.57.18h-.12V9a6.53,6.53,0,0,1,.72-.14,5.66,5.66,0,0,1,1-.08,3.09,3.09,0,0,1,1.73.37,1.31,1.31,0,0,1,.53,1.15v3H44.34Zm0-.68v-.91l-.62.07a2.15,2.15,0,0,0-.5.09.76.76,0,0,0-.33.19.53.53,0,0,0-.11.34.69.69,0,0,0,0,.22.28.28,0,0,0,.11.16.66.66,0,0,0,.22.12,1.79,1.79,0,0,0,.39,0,1.12,1.12,0,0,0,.43-.08A1.33,1.33,0,0,0,44.34,12.13Z"/><path d="M49.77,10.23h-.12a1.43,1.43,0,0,0-.29,0l-.33,0a2.79,2.79,0,0,0-.53,0,2.64,2.64,0,0,0-.5.13v2.94H46.59V8.89H48v.65A2.9,2.9,0,0,1,48.81,9a1.73,1.73,0,0,1,.63-.13h.33Z"/><path d="M54.79,13.28H53.16l-1.23-1.91-.38.47v1.44H50.14V7.2h1.41v3.63l1.51-1.94h1.62L53.1,10.78Z"/></svg>