<?xml version="1.0" encoding="utf-8"?>
<!-- Generator: Adobe Illustrator 24.1.2, SVG Export Plug-In . SVG Version: 6.00 Build 0)  -->
<svg version="1.1" xmlns="http://www.w3.org/2000/svg" xmlns:xlink="http://www.w3.org/1999/xlink" x="0px" y="0px"
	 viewBox="0 0 150 30" style="enable-background:new 0 0 150 30;" xml:space="preserve">
<style type="text/css">
	.st0{fill:#1A1A1A;}
	.st1{fill:#5BAE9B;}
	.st2{fill:#FFFFFF;}
</style>
<g id="Слой_1">
</g>
<g id="Слой_2">
	<g>
		<path class="st0" d="M39.91,24.83c0.05-0.78,0.1-2.18,0.1-3.51V7.79h3.65v6.69h0.05c0.7-1.01,1.92-1.66,3.55-1.66
			c2.82,0,4.88,2.33,4.85,5.93c0,4.23-2.68,6.34-5.37,6.34c-1.37,0-2.69-0.51-3.51-1.9h-0.05l-0.15,1.64H39.91z M43.66,19.85
			c0,0.23,0.02,0.45,0.06,0.64c0.24,0.98,1.08,1.74,2.15,1.74c1.55,0,2.52-1.21,2.52-3.32c0-1.83-0.82-3.27-2.51-3.27
			c-1.01,0-1.91,0.74-2.15,1.8c-0.04,0.21-0.07,0.44-0.07,0.68V19.85z"/>
		<path class="st0" d="M57.48,20.13c0.11,1.52,1.61,2.24,3.31,2.24c1.24,0,2.25-0.17,3.23-0.5l0.49,2.47
			c-1.22,0.5-2.68,0.74-4.26,0.74c-3.98,0-6.26-2.32-6.26-5.98c0-2.99,1.86-6.29,5.92-6.29c3.81,0,5.25,2.96,5.25,5.87
			c0,0.64-0.07,1.18-0.13,1.45H57.48z M61.77,17.63c0.01-0.88-0.39-2.38-2.05-2.38c-1.54,0-2.17,1.41-2.27,2.38H61.77z"/>
		<path class="st0" d="M67.58,16.84c0-1.46-0.05-2.7-0.1-3.75h3.17l0.17,1.63h0.08c0.47-0.76,1.67-1.89,3.63-1.89
			c2.4,0,4.21,1.6,4.21,5.06v6.95h-3.66v-6.51c0-1.51-0.54-2.55-1.86-2.55c-1,0-1.6,0.7-1.85,1.38c-0.09,0.23-0.13,0.58-0.13,0.9
			v6.78h-3.66V16.84z"/>
		<path class="st0" d="M81.87,21.65c0.67,0.41,2.07,0.87,3.13,0.87c1.1,0,1.57-0.37,1.57-0.97c0-0.61-0.37-0.9-1.72-1.36
			c-2.44-0.8-3.36-2.13-3.35-3.51c0-2.21,1.86-3.86,4.78-3.86c1.37,0,2.59,0.32,3.31,0.68l-0.64,2.52
			c-0.53-0.28-1.55-0.66-2.55-0.66c-0.89,0-1.4,0.36-1.4,0.95c0,0.56,0.47,0.86,1.91,1.36c2.23,0.76,3.16,1.9,3.18,3.62
			c0,2.19-1.71,3.81-5.08,3.81c-1.53,0-2.91-0.35-3.8-0.83L81.87,21.65z"/>
		<path class="st0" d="M96.3,9.82c0,1.02-0.75,1.82-1.96,1.82c-1.16,0-1.91-0.81-1.9-1.82c0-1.04,0.76-1.83,1.93-1.83
			C95.55,7.99,96.29,8.78,96.3,9.82z M92.54,24.83V13.08h3.66v11.75H92.54z"/>
		<path class="st0" d="M99.36,16.84c0-1.46-0.04-2.7-0.1-3.75h3.17l0.17,1.63h0.08c0.47-0.76,1.67-1.89,3.63-1.89
			c2.4,0,4.21,1.6,4.21,5.06v6.95h-3.66v-6.51c0-1.51-0.54-2.55-1.86-2.55c-1,0-1.6,0.7-1.85,1.38c-0.09,0.23-0.13,0.58-0.13,0.9
			v6.78h-3.66V16.84z"/>
		<path class="st0" d="M125.25,18.84c0,4.29-3.04,6.26-6.19,6.26c-3.42,0-6.07-2.26-6.07-6.05c0-3.79,2.5-6.22,6.28-6.22
			C122.86,12.82,125.25,15.29,125.25,18.84z M116.76,18.96c0,2,0.85,3.53,2.4,3.53c1.42,0,2.33-1.43,2.33-3.55
			c0-1.73-0.67-3.51-2.32-3.51C117.42,15.43,116.76,17.22,116.76,18.96z"/>
		<path class="st0" d="M127.75,16.84c0-1.46-0.04-2.7-0.1-3.75h3.17l0.17,1.63h0.08c0.47-0.76,1.67-1.89,3.63-1.89
			c2.4,0,4.21,1.6,4.21,5.06v6.95h-3.66v-6.51c0-1.51-0.54-2.55-1.86-2.55c-1,0-1.6,0.7-1.85,1.38c-0.09,0.23-0.13,0.58-0.13,0.9
			v6.78h-3.66V16.84z"/>
	</g>
	<path class="st1" d="M27.86,13.66c0.95,1.52,1.5,3.31,1.5,5.23c0,5.45-4.42,9.87-9.87,9.87s-9.87-4.42-9.87-9.87
		c0-4.23,3.15-7.33,6.55-9.5"/>
	<polyline class="st1" points="23.4,17.08 14.15,4.25 18.7,0.97 27.94,13.79 	"/>
	<path class="st2" d="M20.33,14.85l-0.72-0.71c-0.17-0.02-4.09,2.35-4.09,4.66s1.87,4.19,4.19,4.19c2.31,0,4.34-1.88,4.19-4.19
		C23.77,16.87,22.19,15.16,20.33,14.85z"/>
	
		<rect x="17.25" y="3.25" transform="matrix(0.8133 -0.5819 0.5819 0.8133 -2.864 12.437)" class="st2" width="1.39" height="14.87"/>
</g>
</svg>
